<svg width="11" height="10" viewBox="0 0 11 10" fill="none" xmlns="http://www.w3.org/2000/svg">
<g clip-path="url(#clip0_0_83)">
<path d="M5.44499 3.80831C6.03166 3.83331 6.18291 4.28748 6.19207 4.49998H7.01249C6.97582 3.67498 6.32957 3.17081 5.43124 3.17081C4.41832 3.17081 3.66666 3.74998 3.66666 5.05831C3.66666 5.86665 4.09291 6.82498 5.42666 6.82498C6.44416 6.82498 6.98957 6.13748 7.00332 5.59581H6.18291C6.16916 5.84165 5.97666 6.17081 5.43582 6.19581C4.83541 6.17915 4.58332 5.75415 4.58332 5.05831C4.58332 3.85415 5.16999 3.81665 5.44499 3.80831ZM5.49999 0.833313C2.96999 0.833313 0.916656 2.69998 0.916656 4.99998C0.916656 7.29998 2.96999 9.16665 5.49999 9.16665C8.02999 9.16665 10.0833 7.29998 10.0833 4.99998C10.0833 2.69998 8.02999 0.833313 5.49999 0.833313ZM5.49999 8.33331C3.47874 8.33331 1.83332 6.83748 1.83332 4.99998C1.83332 3.16248 3.47874 1.66665 5.49999 1.66665C7.52124 1.66665 9.16666 3.16248 9.16666 4.99998C9.16666 6.83748 7.52124 8.33331 5.49999 8.33331Z" fill="#F8F8F8"/>
</g>
<defs>
<clipPath id="clip0_0_83">
<rect width="11" height="10" fill="white"/>
</clipPath>
</defs>
</svg>
